# xmcd CD database file
#
# Track frame offsets:
#	150
#	17132
#	34917
#	51612
#	66622
#	85615
#	97497
#	117032
#	137612
#	154527
#	175017
#
# Disc length: 2518 seconds
#
# Revision: 3
# Processed by: cddbd v1.5PL3 Copyright (c) Steve Scherf et al.
# Submitted via: CDex 1.51
#
DISCID=9609d40b
DTITLE=Luther Tucker - Sad Hours
DYEAR=1994
DGENRE=Blues
TTITLE0=You Got What You Wanted
TTITLE1=Playboy
TTITLE2=Mean Old World
TTITLE3=Luther's Tribute to Elmore
TTITLE4=Can't Live without You
TTITLE5=Person to Person
TTITLE6=Sweet Home Chicago
TTITLE7=War Boy
TTITLE8=Keep on Drinking
TTITLE9=Five Long Years
TTITLE10=Canadian Sunset
EXTD=YEAR: 1994
EXTT0=
EXTT1=
EXTT2=
EXTT3=
EXTT4=
EXTT5=
EXTT6=
EXTT7=
EXTT8=
EXTT9=
EXTT10=
PLAYORDER=
